<svg width="220" height="220" viewBox="0 0 220 220" fill="none" xmlns="http://www.w3.org/2000/svg">
<path d="M110 106H156C158.209 106 160 107.791 160 110V110C160 112.209 158.209 114 156 114H110V106Z" fill="#C4C4C4"/>
<path d="M106 60H110C112.209 60 114 61.7909 114 64V156C114 158.209 112.209 160 110 160V160C107.791 160 106 158.209 106 156V60Z" fill="#C4C4C4"/>
<path d="M10 15.6569V15.6569C13.1242 12.5327 18.1895 12.5327 21.3137 15.6569L86.3675 80.7107V80.7107C83.2433 83.8349 78.178 83.8349 75.0538 80.7107L10 15.6569Z" fill="#C4C4C4"/>
<path d="M110 18C59.1898 18 18 59.1898 18 110C18 160.81 59.1898 202 110 202C160.81 202 202 160.81 202 110H210C210 165.228 165.228 210 110 210C54.7715 210 10 165.228 10 110C10 54.7715 54.7715 10 110 10V18Z" fill="#C4C4C4"/>
<path d="M110 60C137.614 60 160 82.3858 160 110C160 137.614 137.614 160 110 160C82.3858 160 60 137.614 60 110H68C68 133.196 86.804 152 110 152C133.196 152 152 133.196 152 110C152 86.804 133.196 68 110 68V60Z" fill="#C4C4C4"/>
</svg>
