<svg width="500" height="250" viewBox="0 0 500 250" fill="none" xmlns="http://www.w3.org/2000/svg">
<rect x="148" y="121" width="50" height="8" rx="4" fill="#C4C4C4"/>
<path d="M144 79C144 76.7909 145.791 75 148 75V75C150.209 75 152 76.7909 152 79V171C152 173.209 150.209 175 148 175V175C145.791 175 144 173.209 144 171V79Z" fill="#C4C4C4"/>
<path d="M48 30.6569V30.6569C51.1242 27.5327 56.1895 27.5327 59.3137 30.6569L124.368 95.7107V95.7107C121.243 98.8349 116.178 98.8349 113.054 95.7107L48 30.6569Z" fill="#C4C4C4"/>
<path d="M148 29C148 31.2091 146.204 32.991 143.997 33.0855C95.0441 35.1811 56 75.5309 56 125C56 175.81 97.1898 217 148 217C197.469 217 237.819 177.956 239.914 129.003C240.009 126.796 241.791 125 244 125C246.209 125 248.008 126.797 247.921 129.004C245.819 182.376 201.887 225 148 225C92.7715 225 48 180.228 48 125C48 71.1126 90.6235 27.1805 143.996 25.0787C146.203 24.9918 148 26.7909 148 29Z" fill="#C4C4C4"/>
<path d="M148 75C175.614 75 198 97.3858 198 125C198 152.614 175.614 175 148 175C121.732 175 100.195 154.744 98.1576 128.999C97.9833 126.797 99.7909 125 102 125C104.209 125 105.98 126.796 106.188 128.996C108.2 150.318 126.152 167 148 167C171.196 167 190 148.196 190 125C190 103.152 173.318 85.1999 151.996 83.1876C149.796 82.98 148 81.2091 148 79V75Z" fill="#C4C4C4"/>
<path d="M187.739 57.6307V54.8182H207.375V57.6307H199.142V81H195.972V57.6307H187.739ZM220.348 81H212.268V54.8182H220.706C223.245 54.8182 225.419 55.3423 227.225 56.3906C229.032 57.4304 230.417 58.9261 231.38 60.8778C232.343 62.821 232.825 65.1477 232.825 67.858C232.825 70.5852 232.339 72.9332 231.368 74.902C230.396 76.8622 228.981 78.3707 227.123 79.4276C225.265 80.4759 223.007 81 220.348 81ZM215.439 78.1875H220.143C222.308 78.1875 224.102 77.7699 225.525 76.9347C226.949 76.0994 228.01 74.9105 228.708 73.3679C229.407 71.8253 229.757 69.9886 229.757 67.858C229.757 65.7443 229.412 63.9247 228.721 62.3991C228.031 60.8651 227 59.6889 225.627 58.8707C224.255 58.044 222.547 57.6307 220.501 57.6307H215.439V78.1875ZM245.967 81.4091C244.075 81.4091 242.443 80.9915 241.071 80.1562C239.707 79.3125 238.654 78.1364 237.913 76.6278C237.18 75.1108 236.814 73.3466 236.814 71.3352C236.814 69.3239 237.18 67.5511 237.913 66.017C238.654 64.4744 239.686 63.2727 241.007 62.4119C242.336 61.5426 243.887 61.108 245.66 61.108C246.683 61.108 247.693 61.2784 248.69 61.6193C249.687 61.9602 250.595 62.5142 251.413 63.2812C252.231 64.0398 252.883 65.0455 253.369 66.2983C253.855 67.5511 254.098 69.0937 254.098 70.9261V72.2045H238.961V69.5966H251.029C251.029 68.4886 250.808 67.5 250.365 66.6307C249.93 65.7614 249.308 65.0753 248.498 64.5724C247.697 64.0696 246.751 63.8182 245.66 63.8182C244.458 63.8182 243.419 64.1165 242.541 64.7131C241.672 65.3011 241.002 66.0682 240.534 67.0142C240.065 67.9602 239.831 68.9744 239.831 70.0568V71.7955C239.831 73.2784 240.086 74.5355 240.598 75.5668C241.118 76.5895 241.838 77.3693 242.758 77.9062C243.679 78.4347 244.748 78.6989 245.967 78.6989C246.76 78.6989 247.475 78.5881 248.115 78.3665C248.762 78.1364 249.321 77.7955 249.789 77.3438C250.258 76.8835 250.62 76.3125 250.876 75.6307L253.791 76.4489C253.484 77.4375 252.968 78.3068 252.244 79.0568C251.52 79.7983 250.625 80.3778 249.559 80.7955C248.494 81.2045 247.297 81.4091 245.967 81.4091ZM274.146 61.3636L266.885 81H263.817L256.555 61.3636H259.828L265.249 77.0114H265.453L270.874 61.3636H274.146ZM299.504 66.5028V69.3153H288.049V66.5028H299.504ZM315.346 81V54.8182H324.193C326.247 54.8182 327.926 55.1889 329.23 55.9304C330.542 56.6634 331.514 57.6562 332.145 58.9091C332.775 60.1619 333.091 61.5597 333.091 63.1023C333.091 64.6449 332.775 66.0469 332.145 67.3082C331.522 68.5696 330.559 69.5753 329.255 70.3253C327.951 71.0668 326.281 71.4375 324.244 71.4375H317.903V68.625H324.142C325.548 68.625 326.677 68.3821 327.529 67.8963C328.382 67.4105 329 66.7543 329.383 65.9276C329.775 65.0923 329.971 64.1506 329.971 63.1023C329.971 62.054 329.775 61.1165 329.383 60.2898C329 59.4631 328.377 58.8153 327.517 58.3466C326.656 57.8693 325.514 57.6307 324.091 57.6307H318.517V81H315.346ZM345.555 81.4091C343.782 81.4091 342.227 80.9872 340.889 80.1435C339.559 79.2997 338.52 78.1193 337.77 76.6023C337.028 75.0852 336.657 73.3125 336.657 71.2841C336.657 69.2386 337.028 67.4531 337.77 65.9276C338.52 64.402 339.559 63.2173 340.889 62.3736C342.227 61.5298 343.782 61.108 345.555 61.108C347.328 61.108 348.879 61.5298 350.208 62.3736C351.547 63.2173 352.586 64.402 353.328 65.9276C354.078 67.4531 354.453 69.2386 354.453 71.2841C354.453 73.3125 354.078 75.0852 353.328 76.6023C352.586 78.1193 351.547 79.2997 350.208 80.1435C348.879 80.9872 347.328 81.4091 345.555 81.4091ZM345.555 78.6989C346.902 78.6989 348.01 78.3537 348.879 77.6634C349.748 76.973 350.392 76.0653 350.809 74.9403C351.227 73.8153 351.436 72.5966 351.436 71.2841C351.436 69.9716 351.227 68.7486 350.809 67.6151C350.392 66.4815 349.748 65.5653 348.879 64.8665C348.01 64.1676 346.902 63.8182 345.555 63.8182C344.208 63.8182 343.1 64.1676 342.231 64.8665C341.362 65.5653 340.718 66.4815 340.301 67.6151C339.883 68.7486 339.674 69.9716 339.674 71.2841C339.674 72.5966 339.883 73.8153 340.301 74.9403C340.718 76.0653 341.362 76.973 342.231 77.6634C343.1 78.3537 344.208 78.6989 345.555 78.6989ZM359.058 81V61.3636H361.973V64.3295H362.178C362.536 63.358 363.183 62.5696 364.121 61.9645C365.058 61.3594 366.115 61.0568 367.291 61.0568C367.513 61.0568 367.79 61.0611 368.122 61.0696C368.455 61.0781 368.706 61.0909 368.876 61.108V64.1761C368.774 64.1506 368.54 64.1122 368.173 64.0611C367.815 64.0014 367.436 63.9716 367.036 63.9716C366.081 63.9716 365.229 64.1719 364.479 64.5724C363.737 64.9645 363.149 65.5099 362.714 66.2088C362.288 66.8991 362.075 67.6875 362.075 68.5739V81H359.058ZM382.223 61.3636V63.9205H372.047V61.3636H382.223ZM375.013 56.6591H378.03V75.375C378.03 76.2273 378.153 76.8665 378.401 77.2926C378.656 77.7102 378.98 77.9915 379.372 78.1364C379.773 78.2727 380.195 78.3409 380.638 78.3409C380.97 78.3409 381.243 78.3239 381.456 78.2898C381.669 78.2472 381.839 78.2131 381.967 78.1875L382.581 80.8977C382.376 80.9744 382.091 81.0511 381.724 81.1278C381.358 81.2131 380.893 81.2557 380.331 81.2557C379.479 81.2557 378.643 81.0724 377.825 80.706C377.016 80.3395 376.342 79.7812 375.805 79.0312C375.277 78.2812 375.013 77.3352 375.013 76.1932V56.6591ZM395.506 61.3636V63.9205H384.92V61.3636H395.506ZM388.091 81V58.6534C388.091 57.5284 388.355 56.5909 388.884 55.8409C389.412 55.0909 390.098 54.5284 390.942 54.1534C391.786 53.7784 392.676 53.5909 393.614 53.5909C394.355 53.5909 394.96 53.6506 395.429 53.7699C395.898 53.8892 396.247 54 396.477 54.1023L395.608 56.7102C395.455 56.6591 395.241 56.5952 394.969 56.5185C394.705 56.4418 394.355 56.4034 393.92 56.4034C392.923 56.4034 392.203 56.6548 391.76 57.1577C391.325 57.6605 391.108 58.3977 391.108 59.3693V81H388.091ZM406.903 81.4091C405.13 81.4091 403.575 80.9872 402.237 80.1435C400.907 79.2997 399.867 78.1193 399.117 76.6023C398.376 75.0852 398.005 73.3125 398.005 71.2841C398.005 69.2386 398.376 67.4531 399.117 65.9276C399.867 64.402 400.907 63.2173 402.237 62.3736C403.575 61.5298 405.13 61.108 406.903 61.108C408.675 61.108 410.227 61.5298 411.556 62.3736C412.894 63.2173 413.934 64.402 414.675 65.9276C415.425 67.4531 415.8 69.2386 415.8 71.2841C415.8 73.3125 415.425 75.0852 414.675 76.6023C413.934 78.1193 412.894 79.2997 411.556 80.1435C410.227 80.9872 408.675 81.4091 406.903 81.4091ZM406.903 78.6989C408.249 78.6989 409.357 78.3537 410.227 77.6634C411.096 76.973 411.739 76.0653 412.157 74.9403C412.575 73.8153 412.783 72.5966 412.783 71.2841C412.783 69.9716 412.575 68.7486 412.157 67.6151C411.739 66.4815 411.096 65.5653 410.227 64.8665C409.357 64.1676 408.249 63.8182 406.903 63.8182C405.556 63.8182 404.448 64.1676 403.579 64.8665C402.71 65.5653 402.066 66.4815 401.648 67.6151C401.231 68.7486 401.022 69.9716 401.022 71.2841C401.022 72.5966 401.231 73.8153 401.648 74.9403C402.066 76.0653 402.71 76.973 403.579 77.6634C404.448 78.3537 405.556 78.6989 406.903 78.6989ZM423.423 54.8182V81H420.406V54.8182H423.423ZM428.949 81V61.3636H431.966V81H428.949ZM430.483 58.0909C429.895 58.0909 429.388 57.8906 428.962 57.4901C428.544 57.0895 428.335 56.608 428.335 56.0455C428.335 55.483 428.544 55.0014 428.962 54.6009C429.388 54.2003 429.895 54 430.483 54C431.071 54 431.574 54.2003 431.991 54.6009C432.418 55.0014 432.631 55.483 432.631 56.0455C432.631 56.608 432.418 57.0895 431.991 57.4901C431.574 57.8906 431.071 58.0909 430.483 58.0909ZM445.469 81.4091C443.696 81.4091 442.141 80.9872 440.803 80.1435C439.473 79.2997 438.434 78.1193 437.684 76.6023C436.942 75.0852 436.571 73.3125 436.571 71.2841C436.571 69.2386 436.942 67.4531 437.684 65.9276C438.434 64.402 439.473 63.2173 440.803 62.3736C442.141 61.5298 443.696 61.108 445.469 61.108C447.242 61.108 448.793 61.5298 450.123 62.3736C451.461 63.2173 452.5 64.402 453.242 65.9276C453.992 67.4531 454.367 69.2386 454.367 71.2841C454.367 73.3125 453.992 75.0852 453.242 76.6023C452.5 78.1193 451.461 79.2997 450.123 80.1435C448.793 80.9872 447.242 81.4091 445.469 81.4091ZM445.469 78.6989C446.816 78.6989 447.924 78.3537 448.793 77.6634C449.662 76.973 450.306 76.0653 450.723 74.9403C451.141 73.8153 451.35 72.5966 451.35 71.2841C451.35 69.9716 451.141 68.7486 450.723 67.6151C450.306 66.4815 449.662 65.5653 448.793 64.8665C447.924 64.1676 446.816 63.8182 445.469 63.8182C444.123 63.8182 443.015 64.1676 442.145 64.8665C441.276 65.5653 440.632 66.4815 440.215 67.6151C439.797 68.7486 439.588 69.9716 439.588 71.2841C439.588 72.5966 439.797 73.8153 440.215 74.9403C440.632 76.0653 441.276 76.973 442.145 77.6634C443.015 78.3537 444.123 78.6989 445.469 78.6989Z" fill="#C4C4C4"/>
</svg>
