<svg width="220" height="220" viewBox="0 0 220 220" fill="none" xmlns="http://www.w3.org/2000/svg">
<rect x="110" y="106" width="50" height="8" rx="4" fill="#C4C4C4"/>
<path d="M106 64C106 61.7909 107.791 60 110 60V60C112.209 60 114 61.7909 114 64V156C114 158.209 112.209 160 110 160V160C107.791 160 106 158.209 106 156V64Z" fill="#C4C4C4"/>
<path d="M10 15.6569V15.6569C13.1242 12.5327 18.1895 12.5327 21.3137 15.6569L86.3675 80.7107V80.7107C83.2433 83.8349 78.178 83.8349 75.0538 80.7107L10 15.6569Z" fill="#C4C4C4"/>
<path d="M110 14C110 16.2091 108.204 17.991 105.997 18.0855C57.0441 20.1811 18 60.5309 18 110C18 160.81 59.1898 202 110 202C159.469 202 199.819 162.956 201.914 114.003C202.009 111.796 203.791 110 206 110C208.209 110 210.008 111.797 209.921 114.004C207.819 167.376 163.887 210 110 210C54.7715 210 10 165.228 10 110C10 56.1126 52.6235 12.1805 105.996 10.0787C108.203 9.99178 110 11.7909 110 14Z" fill="#C4C4C4"/>
<path d="M110 60C137.614 60 160 82.3858 160 110C160 137.614 137.614 160 110 160C83.732 160 62.1951 139.744 60.1576 113.999C59.9833 111.797 61.7909 110 64 110C66.2091 110 67.98 111.796 68.1876 113.996C70.1999 135.318 88.1518 152 110 152C133.196 152 152 133.196 152 110C152 88.1518 135.318 70.1999 113.996 68.1876C111.796 67.98 110 66.2091 110 64V60Z" fill="#C4C4C4"/>
</svg>
